<svg width="436" height="318" viewBox="0 0 436 318" fill="none" xmlns="http://www.w3.org/2000/svg">
<path fill-rule="evenodd" clip-rule="evenodd" d="M434.568 141.835C434.068 141.437 433.488 141.322 433.02 141.322C432.092 141.322 431.132 141.759 430.423 142.47L430.299 142.59L430.211 142.734C420.526 157.952 412.405 168.107 405.304 174.444C398.214 180.771 392.263 183.187 386.877 183.187C383.834 183.187 382.089 182.308 381.052 181.039C379.963 179.706 379.406 177.645 379.406 174.791C379.406 170.319 380.723 165.027 382.805 159.493C384.806 154.176 387.477 148.73 390.238 143.718C400.633 140.637 412.805 135.082 420.746 128.074L420.758 128.065L420.77 128.055C423.606 125.452 426.023 122.745 427.739 120.018C429.451 117.297 430.523 114.466 430.523 111.647C430.523 109.521 429.923 107.299 428.299 105.603C426.663 103.889 424.187 102.927 420.878 102.927C414.325 102.927 405.988 106.046 397.965 111.336C389.906 116.649 381.99 124.265 376.308 133.498C374.304 136.734 372.649 140.025 371.328 143.329C361.992 157.278 354.014 167.279 346.828 173.787C339.621 180.315 333.366 183.187 327.469 183.187C324.719 183.187 323.007 182.29 321.941 180.961C320.827 179.575 320.229 177.487 320.229 174.791C320.229 169.546 321.987 163.238 324.904 156.404C327.811 149.594 331.814 142.382 336.186 135.365C341.135 127.423 346.05 120.574 350.497 115.731C352.721 113.307 354.792 111.428 356.654 110.165C358.541 108.885 360.067 108.339 361.238 108.339C362.475 108.339 363.577 109.054 364.741 110.71C365.917 112.383 366.918 114.68 368.027 117.245L369.63 120.946L376.883 107.76L375.829 106.949C372.512 104.398 368.003 102.927 362.857 102.927C345.246 102.927 327.936 116.114 318.288 131.646L318.287 131.648C315.987 135.363 313.973 139.102 312.357 142.96L304.877 154.52L304.875 154.523C299.418 162.999 294.69 170.281 290.022 175.459C285.342 180.648 280.99 183.418 276.341 183.418C274.402 183.418 273.081 182.909 272.261 182.17C271.464 181.449 270.951 180.341 270.951 178.723C270.951 176.568 271.383 174.531 274.43 169.005C277.494 163.451 283.07 154.596 293.143 138.85L293.146 138.845L311.983 109.177L311.149 105.009H283.457L283.044 105.318C282.43 105.778 281.964 106.302 281.662 106.906C281.357 107.515 281.267 108.112 281.267 108.64V110.189H291.061L279.885 127.939C276.635 133.125 273.748 137.882 271.35 142.474L271.34 142.481L264.948 151.95C258.453 161.578 252.913 169.68 247.633 175.386C242.33 181.116 237.573 184.112 232.695 184.112C230.989 184.112 229.848 183.662 229.146 183.017C228.464 182.39 228 181.397 228 179.879C228 178.094 228.702 175.839 230.769 172.272C232.827 168.718 236.13 164.043 241.102 157.452L248.271 147.97L248.272 147.969C257.631 135.568 260.381 128.305 260.381 119.048C260.381 114.557 259.74 110.579 258.026 107.678C256.234 104.645 253.345 102.927 249.348 102.927C244.033 102.927 238.245 105.638 232.185 110.292C226.094 114.968 219.545 121.749 212.676 130.215L212.512 130.417H210.421V118.354C210.421 113.938 209.597 110.512 207.504 108.206C205.375 105.861 202.248 105.009 198.463 105.009H189.969L189.516 105.462C188.874 106.104 188.257 107.04 187.951 108.264L187.47 110.19H197.538C200.44 110.19 201.868 110.708 202.589 111.339C203.246 111.914 203.621 112.859 203.621 114.654C203.621 116.389 202.986 118.567 201.634 121.384C200.291 124.183 198.312 127.469 195.774 131.39L195.77 131.397L160.722 186.749H180.57L200.695 155.732L201.844 153.895C211.524 139.607 220.587 128.204 228.628 120.391C232.651 116.483 236.383 113.507 239.775 111.516C243.178 109.519 246.14 108.571 248.654 108.571C250.179 108.571 250.857 108.929 251.173 109.244C251.486 109.557 251.731 110.117 251.731 111.184C251.731 112.753 251.075 114.843 249.441 117.773C247.82 120.679 245.331 124.25 241.875 128.743L241.874 128.744L234.241 138.69L234.239 138.693C224.446 151.517 219.812 161.797 219.812 172.015C219.812 175.721 220.402 179.902 222.266 183.213C224.191 186.632 227.458 189.062 232.464 189.062C239.461 189.062 245.878 184.415 251.84 177.971C256.096 173.371 260.279 167.677 264.429 161.658C263.944 164.469 263.689 167.362 263.689 170.396C263.689 173.935 264.093 178.33 265.842 181.892C266.728 183.696 267.981 185.333 269.741 186.515C271.511 187.703 273.699 188.368 276.341 188.368C282.915 188.368 288.679 184.19 293.923 178.395C298.869 172.929 303.61 165.729 308.358 158.399C308.194 160.049 308.109 161.734 308.109 163.457C308.109 170.036 309.66 176.262 312.8 180.893C315.973 185.575 320.765 188.599 327.006 188.599C333.882 188.599 340.658 185.583 347.889 179.482C353.972 174.35 360.461 166.966 367.705 157.156C367.424 159.358 367.286 161.539 367.286 163.689C367.286 170.168 368.903 176.336 372.07 180.932C375.266 185.569 380.052 188.599 386.183 188.599C393.16 188.599 400.334 185.533 408.256 178.525C416.165 171.531 424.931 160.519 435.14 144.395L435.38 144.015V143.566C435.38 142.906 435.112 142.271 434.568 141.835ZM409.416 115.844C411.977 113.186 414.381 111.173 416.577 109.833C418.786 108.486 420.686 107.877 422.266 107.877C423.59 107.877 424.278 108.247 424.659 108.654C425.055 109.081 425.343 109.803 425.343 110.953C425.343 112.623 424.635 114.642 423.186 116.913C421.838 119.024 419.91 121.25 417.541 123.47C417.385 123.617 417.225 123.764 417.065 123.912L417.057 123.918L417.061 123.913C411.096 129.303 402.235 134.089 393.781 137.36C399.173 128.265 404.515 120.936 409.416 115.844Z" fill="black"/>
<path fill-rule="evenodd" clip-rule="evenodd" d="M176.004 144.015V143.566C176.004 142.906 175.735 142.271 175.191 141.835C174.694 141.437 174.113 141.322 173.645 141.322C172.716 141.322 171.757 141.759 171.046 142.47L170.925 142.59L170.834 142.734C161.15 157.952 153.029 168.107 145.927 174.444C138.838 180.771 132.887 183.187 127.501 183.187C124.458 183.187 122.713 182.308 121.676 181.039C120.587 179.706 120.03 177.645 120.03 174.791C120.03 170.319 121.347 165.027 123.43 159.493C125.43 154.176 128.101 148.73 130.862 143.718C141.257 140.637 153.428 135.082 161.371 128.074L161.382 128.065L161.393 128.055C164.232 125.452 166.649 122.745 168.365 120.018C170.076 117.297 171.147 114.466 171.147 111.647C171.147 109.521 170.548 107.299 168.925 105.603C167.285 103.889 164.81 102.927 161.502 102.927C154.949 102.927 146.612 106.046 138.589 111.336C130.529 116.65 122.612 124.267 116.929 133.502C110.774 143.447 107.91 153.903 107.91 163.689C107.91 170.168 109.527 176.336 112.694 180.932C115.89 185.569 120.676 188.599 126.807 188.599C133.784 188.599 140.958 185.532 148.882 178.525C156.79 171.531 165.555 160.519 175.764 144.395L176.004 144.015ZM150.041 115.844C152.6 113.186 155.006 111.173 157.202 109.833C159.409 108.486 161.31 107.877 162.89 107.877C164.213 107.877 164.904 108.247 165.281 108.654C165.678 109.081 165.966 109.803 165.966 110.953C165.966 112.623 165.26 114.642 163.81 116.913C162.372 119.165 160.276 121.548 157.685 123.915C151.718 129.303 142.86 134.089 134.405 137.36C139.797 128.265 145.139 120.936 150.041 115.844Z" fill="black"/>
<path fill-rule="evenodd" clip-rule="evenodd" d="M125.338 93.8955C127.569 90.6762 129.785 87.4769 131.996 84.3152C146.578 63.4607 160.399 43.7041 175.391 29.1415C190.358 14.6019 206.319 5.41236 225.155 5.41236C231.696 5.41236 238.463 6.54202 244.308 8.56526L245.75 9.06441L247.759 3.53855L246.18 3.07076C239.802 1.18094 232.484 0 225.155 0C204.903 0 187.79 9.81253 172.26 24.7488H63.5263L60.2786 30.1611H105.062C93.3513 35.7551 84.7319 45.1419 78.2754 55.2739C70.4469 67.5594 65.7134 81.0751 62.4761 90.5558C58.9948 100.516 56.1335 109.695 53.5047 118.129L53.5023 118.137C47.8818 136.169 43.3503 150.674 36.0973 162.47C28.8989 174.177 18.9894 183.25 2.50436 190.249L0.8125 190.967L4.69062 197L5.9725 196.252C11.4129 193.079 16.5602 190.871 22.7114 189.042C47.8118 181.576 67.8517 165.773 85.2376 146.685C99.9679 130.512 112.87 111.89 125.338 93.8955ZM35.7809 175.219C44.8794 167.14 52.2465 158.116 58.8499 146.875C66.1603 134.43 72.5341 119.268 79.2835 99.6624L79.2831 99.664L79.2839 99.6612C81.0718 94.5 82.7265 89.3464 84.3387 84.324L84.3415 84.3156C89.1062 69.4745 93.4797 55.8903 99.9011 45.9868C106.248 36.1993 114.49 30.1611 127.085 30.1611H166.913C153.321 44.5001 140.616 62.6236 127.523 81.3039L127.471 81.3779C101.773 118.04 74.5396 156.815 35.7809 175.219Z" fill="black"/>
<path fill-rule="evenodd" clip-rule="evenodd" d="M205.752 282.798C204.503 281.869 202.994 281.091 201.327 280.618C199.659 280.145 197.831 279.978 196.044 280.176C194.258 280.374 192.511 280.938 190.988 281.765C189.464 282.592 188.163 283.682 187.147 284.862C186.129 286.04 185.242 287.487 184.647 289.115C184.053 290.744 183.752 292.554 183.818 294.351C183.884 296.147 184.318 297.93 185.03 299.511C185.743 301.091 186.734 302.469 187.837 303.569C188.936 304.671 190.314 305.662 191.894 306.375C193.475 307.087 195.258 307.521 197.054 307.587C198.851 307.653 200.661 307.352 202.29 306.758C203.918 306.164 205.365 305.276 206.543 304.258C207.723 303.242 208.813 301.941 209.64 300.417C210.467 298.894 211.031 297.147 211.229 295.361C211.427 293.574 211.26 291.746 210.787 290.078C210.314 288.411 209.536 286.902 208.607 285.653L211.676 282.584L213.275 284.183H214.544L216.075 282.652V281.384L214.475 279.784L217.718 276.541L220.961 279.784L219.362 281.384V282.652L220.893 284.183H222.162L223.761 282.584L226.83 285.653C225.901 286.902 225.122 288.411 224.649 290.078C224.177 291.746 224.009 293.574 224.207 295.361C224.406 297.147 224.969 298.894 225.796 300.417C226.623 301.941 227.713 303.242 228.893 304.258C230.071 305.276 231.518 306.164 233.147 306.758C234.775 307.352 236.585 307.653 238.382 307.587C240.179 307.521 241.962 307.087 243.542 306.375C245.123 305.662 246.5 304.671 247.6 303.569C248.702 302.469 249.694 301.091 250.406 299.511C251.119 297.93 251.552 296.147 251.619 294.351C251.685 292.554 251.383 290.744 250.789 289.115C250.195 287.487 249.308 286.04 248.289 284.862C247.274 283.682 245.973 282.592 244.449 281.765C242.925 280.938 241.179 280.374 239.392 280.176C237.605 279.978 235.778 280.145 234.11 280.618C232.442 281.091 230.934 281.869 229.684 282.798L226.673 279.782L228.272 278.182V276.914L226.686 275.328H225.417L223.817 276.929L220.573 273.687L237.58 256.68L244.465 263.564V256.401H251.628L244.743 249.516L250.994 243.266V241.997L249.408 240.412H248.139L217.718 270.832L187.297 240.412H186.029L184.443 241.997V243.266L190.693 249.516L183.809 256.401H190.972V263.564L197.856 256.68L214.864 273.687L211.62 276.929L210.019 275.328H208.75L207.165 276.914V278.182L208.764 279.782L205.752 282.798ZM233.351 298.553C232.65 299.989 232.796 301.98 233.698 303.299C234.526 304.666 236.278 305.622 237.876 305.578C239.473 305.622 241.225 304.666 242.054 303.299C242.956 301.98 243.101 299.989 242.401 298.553L242.575 298.365C244.011 299.069 246.005 298.927 247.326 298.025C248.695 297.198 249.653 295.443 249.609 293.844C249.653 292.245 248.695 290.491 247.326 289.663C246.005 288.762 244.011 288.62 242.575 289.324L242.401 289.136C243.101 287.699 242.956 285.709 242.054 284.389C241.225 283.023 239.473 282.067 237.876 282.111C236.278 282.067 234.526 283.023 233.698 284.389C232.796 285.709 232.65 287.699 233.351 289.136L233.176 289.324C231.74 288.62 229.746 288.762 228.425 289.663C227.056 290.491 226.098 292.245 226.142 293.844C226.098 295.443 227.056 297.198 228.425 298.025C229.746 298.927 231.74 299.069 233.176 298.365L233.351 298.553ZM201.739 303.299C202.641 301.98 202.786 299.989 202.086 298.553L202.26 298.365C203.696 299.069 205.69 298.927 207.011 298.025C208.38 297.198 209.338 295.443 209.294 293.844C209.338 292.245 208.38 290.491 207.011 289.663C205.69 288.762 203.696 288.62 202.26 289.324L202.086 289.136C202.786 287.699 202.641 285.709 201.739 284.389C200.91 283.023 199.158 282.067 197.561 282.111C195.963 282.067 194.211 283.023 193.383 284.389C192.481 285.709 192.335 287.699 193.036 289.136L192.861 289.324C191.425 288.62 189.431 288.762 188.11 289.663C186.741 290.491 185.783 292.245 185.827 293.844C185.783 295.443 186.741 297.198 188.11 298.025C189.431 298.927 191.425 299.069 192.861 298.365L193.036 298.553C192.335 299.989 192.481 301.98 193.383 303.299C194.211 304.666 195.963 305.622 197.561 305.578C199.158 305.622 200.91 304.666 201.739 303.299Z" fill="black"/>
<path fill-rule="evenodd" clip-rule="evenodd" d="M218.353 260.824L229.532 249.644V236.037L225.495 232L217.718 239.777L209.941 232L205.904 236.037V249.644L217.084 260.824H218.353ZM225.495 234.854L218.727 241.623V254.74L225.495 247.972V234.854ZM216.709 241.623L209.941 234.854V247.972L216.709 254.74V241.623Z" fill="black"/>
</svg>
