<svg width="478" height="478" viewBox="0 0 478 478" fill="none" xmlns="http://www.w3.org/2000/svg">
<path fill-rule="evenodd" clip-rule="evenodd" d="M213.034 275.212C207.748 271.105 199.707 268.687 192.029 269.539C184.351 270.39 177.036 274.512 172.779 279.678C168.293 284.647 165.29 292.488 165.575 300.208C165.859 307.928 169.431 315.526 174.27 320.152C178.896 324.991 186.494 328.563 194.214 328.847C201.934 329.132 209.775 326.129 214.744 321.644C219.91 317.386 224.032 310.071 224.883 302.393C225.735 294.715 223.317 286.674 219.21 281.388L225.85 274.749L230.683 279.582H233.428L236.741 276.269V273.524L231.907 268.691L238.924 261.674L245.941 268.691L241.108 273.524V276.269L244.421 279.582H247.166L251.999 274.749L258.638 281.388C254.531 286.674 252.113 294.715 252.965 302.393C253.816 310.071 257.938 317.386 263.104 321.644C268.073 326.129 275.914 329.132 283.634 328.847C291.354 328.563 298.952 324.991 303.578 320.152C308.417 315.526 311.989 307.928 312.273 300.208C312.558 292.488 309.555 284.647 305.07 279.678C300.812 274.512 293.497 270.39 285.819 269.539C278.141 268.687 270.1 271.105 264.814 275.212L258.298 268.686L263.129 263.855V261.11L259.697 257.679H256.952L252.119 262.512L245.1 255.498L281.899 218.7L296.795 233.596V218.097H312.294L297.398 203.201L312.294 188.305V185.56L308.862 182.129H306.117L238.924 249.322L171.731 182.129H168.986L165.555 185.56V188.305L180.451 203.201L165.555 218.097H181.054V233.596L195.95 218.7L232.748 255.498L225.729 262.512L220.896 257.679H218.151L214.72 261.11V263.855L219.55 268.686L213.034 275.212ZM205.106 309.299C206.622 312.407 206.307 316.714 204.356 319.569C202.564 322.526 198.772 324.593 195.316 324.499C191.859 324.593 188.068 322.526 186.276 319.569C184.325 316.714 184.01 312.407 185.525 309.299L185.148 308.893C182.04 310.416 177.727 310.107 174.867 308.157C171.906 306.366 169.833 302.571 169.928 299.111C169.833 295.651 171.906 291.856 174.867 290.065C177.727 288.115 182.04 287.806 185.148 289.33L185.525 288.923C184.01 285.815 184.325 281.508 186.276 278.654C188.068 275.697 191.859 273.629 195.316 273.723C198.772 273.629 202.564 275.697 204.356 278.654C206.307 281.508 206.622 285.815 205.106 288.923L205.484 289.33C208.592 287.806 212.905 288.115 215.764 290.065C218.726 291.856 220.798 295.651 220.704 299.111C220.798 302.571 218.726 306.366 215.764 308.157C212.905 310.107 208.592 310.416 205.484 308.893L205.106 309.299ZM273.502 319.569C271.551 316.714 271.237 312.407 272.752 309.299L272.374 308.893C269.267 310.416 264.953 310.107 262.094 308.157C259.132 306.366 257.06 302.571 257.154 299.111C257.06 295.651 259.132 291.856 262.094 290.065C264.953 288.115 269.267 287.806 272.374 289.33L272.752 288.923C271.237 285.815 271.551 281.508 273.502 278.654C275.294 275.697 279.086 273.629 282.542 273.723C285.999 273.629 289.79 275.697 291.582 278.654C293.533 281.508 293.848 285.815 292.333 288.923L292.71 289.33C295.818 287.806 300.131 288.115 302.991 290.065C305.952 291.856 308.025 295.651 307.93 299.111C308.025 302.571 305.952 306.366 302.991 308.157C300.131 310.107 295.818 310.416 292.71 308.893L292.333 309.299C293.848 312.407 293.533 316.714 291.582 319.569C289.79 322.526 285.999 324.593 282.542 324.499C279.086 324.593 275.294 322.526 273.502 319.569Z" fill="#DD3300"/>
<path fill-rule="evenodd" clip-rule="evenodd" d="M238.926 182.128L256.565 164.49L265.299 173.224V202.666L241.11 226.856H236.743L212.553 202.666V173.224L221.288 164.49L238.926 182.128ZM256.562 170.666L241.107 186.121V214.504L256.562 199.048V170.666ZM236.735 186.121L221.28 170.666V199.048L236.735 214.504V186.121Z" fill="#DD3300"/>
<path fill-rule="evenodd" clip-rule="evenodd" d="M477.978 244.223C477.993 242.494 478 240.754 478 239C478 237.246 477.993 235.505 477.978 233.777C477.969 232.625 477.956 231.478 477.94 230.337C477.924 229.196 477.905 228.061 477.883 226.931C477.86 225.801 477.835 224.676 477.806 223.558C477.778 222.439 477.746 221.325 477.711 220.217C477.675 219.06 477.635 217.908 477.592 216.762C477.548 215.603 477.501 214.45 477.45 213.303C477.399 212.156 477.345 211.015 477.287 209.881C477.23 208.746 477.168 207.617 477.104 206.495C477.039 205.372 476.971 204.255 476.9 203.145C476.827 202.009 476.75 200.879 476.67 199.756C476.587 198.595 476.501 197.44 476.41 196.292C476.32 195.144 476.226 194.002 476.128 192.867C476.029 191.732 475.928 190.603 475.822 189.482C475.717 188.36 475.607 187.244 475.494 186.135C475.379 185.008 475.261 183.888 475.138 182.774C475.011 181.616 474.879 180.465 474.743 179.32C474.607 178.176 474.467 177.039 474.323 175.91C474.179 174.78 474.031 173.657 473.879 172.541C473.727 171.426 473.57 170.317 473.41 169.216C473.246 168.086 473.077 166.963 472.904 165.848C472.725 164.699 472.543 163.558 472.355 162.425C472.168 161.292 471.976 160.166 471.78 159.048C471.584 157.93 471.383 156.82 471.178 155.718C470.973 154.615 470.763 153.521 470.549 152.433C470.325 151.292 470.096 150.16 469.861 149.035C469.626 147.904 469.385 146.781 469.14 145.667C468.894 144.552 468.644 143.446 468.389 142.348C468.134 141.25 467.874 140.161 467.609 139.079C467.336 137.965 467.058 136.86 466.775 135.763C466.486 134.64 466.191 133.527 465.891 132.423C465.591 131.318 465.285 130.223 464.975 129.136C464.664 128.05 464.348 126.972 464.027 125.904C463.699 124.81 463.365 123.725 463.025 122.649C462.676 121.544 462.321 120.448 461.961 119.361C461.6 118.275 461.234 117.198 460.863 116.131C460.491 115.064 460.114 114.007 459.731 112.959C459.337 111.882 458.938 110.815 458.533 109.758C458.119 108.678 457.699 107.609 457.272 106.55C456.846 105.491 456.414 104.442 455.976 103.403C455.538 102.365 455.094 101.336 454.643 100.318C454.176 99.2599 453.701 98.2127 453.221 97.1762C452.737 96.1325 452.247 95.0997 451.75 94.0778C451.253 93.0559 450.75 92.0448 450.24 91.0444C449.724 90.0316 449.202 89.0298 448.673 88.0388C448.129 87.0188 447.577 86.0103 447.019 85.0133C446.461 84.0162 445.897 83.0305 445.325 82.0561C444.754 81.0817 444.175 80.1185 443.59 79.1666C442.986 78.183 442.375 77.2114 441.757 76.2515C441.136 75.2879 440.508 74.3362 439.873 73.3961C439.238 72.456 438.596 71.5277 437.948 70.6109C437.286 69.6765 436.618 68.7542 435.942 67.8437C435.258 66.9221 434.567 66.0127 433.869 65.1154C433.171 64.218 432.465 63.3326 431.752 62.4591C431.032 61.5761 430.304 60.7052 429.569 59.8462C428.823 58.9748 428.07 58.1157 427.31 57.2687C426.549 56.4217 425.781 55.5869 425.006 54.764C424.226 53.936 423.439 53.1202 422.644 52.3162C421.839 51.5019 421.027 50.6998 420.207 49.9098C419.387 49.1198 418.56 48.3419 417.726 47.5759C416.888 46.8071 416.043 46.0502 415.191 45.3053C414.331 44.5533 413.463 43.8133 412.589 43.0853C411.714 42.3572 410.832 41.641 409.942 40.9365C409.051 40.2306 408.153 39.5364 407.248 38.8537C406.337 38.1676 405.42 37.4931 404.495 36.83C403.571 36.167 402.639 35.5154 401.701 34.8752C400.762 34.2346 399.815 33.6053 398.862 32.9871C397.908 32.3682 396.947 31.7605 395.979 31.1636C395.011 30.5668 394.036 29.9809 393.054 29.4058C392.073 28.8313 391.086 28.2675 390.092 27.7143C389.1 27.1622 388.101 26.6207 387.096 26.0894C386.09 25.5582 385.078 25.0373 384.06 24.5266C383.044 24.017 382.022 23.5176 380.994 23.028C379.97 22.5408 378.94 22.0634 377.904 21.5957C376.868 21.128 375.826 20.6698 374.778 20.2212C373.733 19.774 372.682 19.3362 371.625 18.9076C370.576 18.4821 369.521 18.0657 368.46 17.6582C367.399 17.2506 366.332 16.852 365.26 16.4621C364.192 16.0736 363.118 15.6937 362.038 15.3224C360.968 14.9545 359.894 14.595 358.813 14.2436C357.733 13.8922 356.647 13.549 355.556 13.2137C354.469 12.8795 353.376 12.5531 352.278 12.2346C351.193 11.9199 350.103 11.6127 349.008 11.313C347.913 11.0132 346.813 10.7209 345.708 10.4359C344.604 10.1512 343.496 9.8737 342.382 9.60331C341.286 9.33697 340.185 9.0775 339.079 8.82475C337.973 8.572 336.863 8.32596 335.748 8.08649C335.609 8.05655 335.469 8.02672 335.33 7.997C334.353 7.78889 333.373 7.5858 332.39 7.38762C331.283 7.16452 330.172 6.94764 329.057 6.73682C327.943 6.52639 326.826 6.32201 325.704 6.12353C324.583 5.92506 323.457 5.73248 322.327 5.54566C321.21 5.36094 320.089 5.18185 318.964 5.00824C317.846 4.83565 316.724 4.66847 315.598 4.50658C314.472 4.34469 313.342 4.18807 312.209 4.0366C311.083 3.88608 309.953 3.74064 308.82 3.60014C307.698 3.46114 306.573 3.32697 305.445 3.1975C304.317 3.06804 303.185 2.94328 302.05 2.82308C300.916 2.70294 299.778 2.58737 298.637 2.47623C297.514 2.36687 296.388 2.2618 295.259 2.1609C294.129 2.06 292.997 1.96327 291.862 1.87057C290.726 1.77787 289.588 1.68922 288.446 1.60447C287.316 1.52057 286.183 1.4405 285.047 1.36415C283.918 1.28825 282.786 1.21602 281.651 1.14734C280.516 1.07866 279.379 1.01353 278.239 0.951829C277.101 0.890285 275.961 0.832152 274.818 0.777312C273.69 0.723155 272.559 0.672207 271.425 0.624356C270.292 0.576505 269.156 0.531749 268.017 0.489973C266.878 0.448197 265.737 0.409402 264.594 0.373472C263.461 0.337876 262.326 0.305092 261.188 0.27501C260.056 0.24507 258.922 0.217807 257.785 0.193108C256.649 0.168408 255.51 0.146274 254.369 0.126595C253.229 0.106942 252.088 0.0897374 250.944 0.0748711C249.813 0.0601768 248.681 0.0477686 247.546 0.0375376C246.412 0.0273066 245.275 0.0192547 244.136 0.0132751C242.998 0.00729561 241.857 0.0033884 240.715 0.00144863C240.144 0.000478745 239.572 0 239 0C238.428 0 237.856 0.000478745 237.285 0.00144863C236.143 0.0033884 235.002 0.00729561 233.863 0.0132751C232.725 0.0192547 231.588 0.0273075 230.454 0.0375376C229.319 0.0477686 228.187 0.0601778 227.056 0.074872C225.912 0.0897384 224.771 0.106943 223.631 0.126596C222.49 0.146276 221.351 0.16841 220.215 0.193109C219.078 0.217808 217.944 0.245072 216.812 0.275012C215.674 0.305094 214.539 0.337878 213.406 0.373474C212.263 0.409404 211.122 0.448199 209.983 0.489974C208.844 0.53175 207.708 0.576507 206.575 0.624358C205.441 0.67221 204.31 0.723157 203.182 0.777315C202.039 0.832156 200.899 0.890288 199.761 0.951832C198.621 1.01353 197.483 1.07866 196.349 1.14734C195.214 1.21602 194.082 1.28825 192.953 1.36415C191.817 1.4405 190.684 1.52057 189.554 1.60448C188.412 1.68922 187.274 1.77788 186.138 1.87057C185.003 1.96327 183.871 2.06001 182.741 2.16091C181.612 2.26181 180.486 2.36687 179.363 2.47623C178.222 2.58738 177.084 2.70295 175.95 2.82309C174.815 2.94328 173.683 3.06805 172.555 3.19751C171.426 3.32698 170.302 3.46114 169.18 3.60015C168.047 3.74065 166.917 3.88609 165.791 4.03661C164.657 4.18808 163.528 4.34469 162.402 4.50659C161.276 4.66848 160.154 4.83565 159.036 5.00825C157.911 5.18186 156.79 5.36095 155.673 5.54567C154.543 5.73249 153.417 5.92507 152.296 6.12354C151.174 6.32202 150.056 6.5264 148.943 6.73683C147.828 6.94764 146.717 7.16453 145.61 7.38763C144.683 7.57434 143.76 7.76542 142.84 7.96093C142.644 8.00259 142.448 8.04444 142.252 8.0865C141.137 8.32597 140.027 8.572 138.921 8.82476C137.815 9.07751 136.714 9.33698 135.617 9.60332C134.504 9.87371 133.396 10.1512 132.292 10.4359C131.187 10.7209 130.087 11.0133 128.992 11.313C127.897 11.6127 126.807 11.9199 125.722 12.2346C124.624 12.5532 123.531 12.8795 122.444 13.2137C121.353 13.549 120.267 13.8922 119.187 14.2436C118.106 14.595 117.031 14.9545 115.962 15.3224C114.882 15.6937 113.808 16.0736 112.74 16.4621C111.668 16.852 110.601 17.2506 109.54 17.6582C108.479 18.0657 107.424 18.4822 106.375 18.9077C105.318 19.3363 104.267 19.774 103.222 20.2212C102.174 20.6699 101.132 21.128 100.096 21.5957C99.0598 22.0635 98.0299 22.5408 97.0063 23.028C95.9777 23.5176 94.9555 24.0171 93.9396 24.5266C92.9214 25.0374 91.9096 25.5583 90.9044 26.0895C89.8991 26.6207 88.9004 27.1623 87.9083 27.7143C86.9142 28.2676 85.9266 28.8314 84.9459 29.4059C83.9642 29.981 82.9892 30.5669 82.0211 31.1637C81.0531 31.7605 80.0919 32.3683 79.1376 32.9872C78.1845 33.6054 77.2383 34.2346 76.2992 34.8752C75.3605 35.5155 74.4289 36.167 73.5044 36.8301C72.5799 37.4931 71.6626 38.1676 70.7524 38.8538C69.8469 39.5364 68.9486 40.2306 68.0575 40.9365C67.1682 41.6411 66.2861 42.3573 65.4113 43.0853C64.5364 43.8134 63.6689 44.5533 62.8088 45.3053C61.9566 46.0503 61.1118 46.8071 60.2743 47.5759C59.4398 48.3419 58.6127 49.1198 57.7929 49.9098C56.9731 50.6998 56.1607 51.5019 55.3558 52.3163C54.5611 53.1202 53.7738 53.9361 52.9938 54.7641C52.2187 55.587 51.4508 56.4218 50.6903 57.2688C49.9298 58.1157 49.1767 58.9749 48.431 59.8463C47.6959 60.7052 46.9681 61.5762 46.2476 62.4592C45.5349 63.3327 44.8293 64.2181 44.1309 65.1154C43.4326 66.0128 42.7415 66.9222 42.0577 67.8437C41.382 68.7542 40.7136 69.6766 40.0523 70.611C39.4035 71.5278 38.7616 72.4561 38.1268 73.3962C37.4919 74.3362 36.8641 75.288 36.2433 76.2516C35.625 77.2115 35.0137 78.1831 34.4094 79.1666C33.8246 80.1186 33.2464 81.0818 32.6749 82.0562C32.1034 83.0306 31.5387 84.0163 30.9807 85.0134C30.4227 86.0104 29.8714 87.0189 29.327 88.0389C28.7982 89.0299 28.2757 90.0317 27.7598 91.0445C27.2503 92.0449 26.747 93.056 26.2502 94.0779C25.7534 95.0998 25.263 96.1326 24.7791 97.1763C24.2985 98.2127 23.8243 99.26 23.3565 100.318C22.9064 101.336 22.4622 102.365 22.024 103.403C21.5858 104.442 21.1536 105.491 20.7275 106.55C20.3014 107.609 19.8813 108.678 19.4673 109.758C19.062 110.815 18.6626 111.882 18.2691 112.959C17.8862 114.007 17.5089 115.064 17.1372 116.132C16.7655 117.199 16.3995 118.275 16.0391 119.361C15.6787 120.448 15.3239 121.544 14.9749 122.649C14.6354 123.725 14.3012 124.81 13.9726 125.904C13.6516 126.973 13.3357 128.05 13.0251 129.136C12.7145 130.223 12.4092 131.318 12.109 132.423C11.8089 133.527 11.5141 134.64 11.2245 135.763C10.9416 136.86 10.6637 137.965 10.3909 139.079C10.1262 140.161 9.86629 141.25 9.6112 142.348C9.3561 143.446 9.10582 144.552 8.8604 145.667C8.61497 146.781 8.3744 147.904 8.13872 149.035C8.08015 149.316 8.02189 149.598 7.96393 149.88C7.79006 150.727 7.6189 151.578 7.45048 152.434C7.23653 153.521 7.02698 154.616 6.82187 155.718C6.61676 156.82 6.41608 157.931 6.21986 159.048C6.02364 160.166 5.83188 161.292 5.64461 162.425C5.45734 163.558 5.27455 164.699 5.09628 165.848C4.92323 166.964 4.75444 168.086 4.58992 169.216C4.42955 170.318 4.27325 171.426 4.12103 172.542C3.96881 173.657 3.82068 174.78 3.67665 175.91C3.53262 177.039 3.3927 178.176 3.25691 179.321C3.12112 180.465 2.98945 181.616 2.86194 182.775C2.73937 183.888 2.62063 185.008 2.50575 186.135C2.39272 187.244 2.28342 188.36 2.17787 189.482C2.07231 190.604 1.97051 191.732 1.87248 192.867C1.77445 194.002 1.68019 195.144 1.58972 196.292C1.49925 197.44 1.41257 198.595 1.32969 199.756C1.24955 200.88 1.17296 202.009 1.09996 203.145C1.02856 204.255 0.960578 205.372 0.896037 206.495C0.831497 207.617 0.770394 208.746 0.712745 209.881C0.655095 211.015 0.600899 212.156 0.550173 213.303C0.499446 214.45 0.452189 215.603 0.408418 216.762C0.365139 217.908 0.325266 219.06 0.288817 220.218C0.253945 221.325 0.222205 222.439 0.193613 223.558C0.16502 224.677 0.139574 225.801 0.117288 226.931C0.0950017 228.061 0.0758762 229.196 0.0599241 230.337C0.043972 231.478 0.0311937 232.625 0.0216026 233.777C0.0120115 234.93 0.00560665 236.087 0.00240326 237.251C0.00080204 237.832 0 238.416 0 239C0 239.585 0.00080204 240.168 0.00240421 240.749C0.00560856 241.913 0.0120125 243.071 0.0216036 244.223C0.0311956 245.375 0.0439739 246.522 0.059926 247.663C0.0758781 248.804 0.0950041 249.939 0.11729 251.069C0.139577 252.199 0.165023 253.324 0.193616 254.442C0.222209 255.561 0.253949 256.675 0.288822 257.783C0.325272 258.94 0.365144 260.092 0.408424 261.238C0.452196 262.397 0.499453 263.55 0.550179 264.697C0.600905 265.844 0.655101 266.985 0.712751 268.119C0.770401 269.254 0.831504 270.383 0.896046 271.505C0.960587 272.628 1.02857 273.745 1.09997 274.855C1.17297 275.991 1.24956 277.121 1.3297 278.244C1.41258 279.405 1.49926 280.56 1.58973 281.708C1.68021 282.856 1.77447 283.998 1.8725 285.133C1.97053 286.268 2.07233 287.397 2.17788 288.518C2.28343 289.64 2.39273 290.756 2.50576 291.865C2.62065 292.992 2.73939 294.112 2.86196 295.226C2.98947 296.384 3.12114 297.535 3.25693 298.68C3.39272 299.824 3.53264 300.961 3.67667 302.09C3.8207 303.22 3.96883 304.343 4.12105 305.458C4.27327 306.574 4.42957 307.683 4.58993 308.784C4.75445 309.914 4.92325 311.037 5.0963 312.152C5.27457 313.301 5.45736 314.442 5.64463 315.575C5.8319 316.708 6.02366 317.834 6.21988 318.952C6.4161 320.07 6.61678 321.18 6.82189 322.282C7.027 323.385 7.23655 324.479 7.4505 325.567C7.63841 326.521 7.82972 327.47 8.02441 328.414C8.0624 328.598 8.1005 328.781 8.13874 328.965C8.37443 330.096 8.615 331.219 8.86042 332.333C9.10585 333.448 9.35612 334.554 9.61122 335.652C9.86632 336.75 10.1262 337.839 10.391 338.921C10.6637 340.035 10.9416 341.14 11.2245 342.237C11.5141 343.36 11.809 344.473 12.1091 345.577C12.4092 346.682 12.7146 347.777 13.0252 348.864C13.3358 349.95 13.6516 351.028 13.9726 352.096C14.3013 353.19 14.6354 354.275 14.9749 355.351C15.3239 356.456 15.6787 357.552 16.0391 358.639C16.3995 359.725 16.7656 360.802 17.1373 361.869C17.5089 362.936 17.8863 363.993 18.2691 365.041C18.6627 366.118 19.0621 367.185 19.4673 368.242C19.8813 369.322 20.3014 370.391 20.7275 371.45C21.1537 372.509 21.5859 373.558 22.024 374.597C22.4622 375.635 22.9064 376.664 23.3566 377.682C23.8244 378.74 24.2986 379.787 24.7791 380.824C25.2631 381.867 25.7535 382.9 26.2503 383.922C26.7471 384.944 27.2503 385.955 27.7599 386.956C28.2758 387.968 28.7982 388.97 29.3271 389.961C29.8715 390.981 30.4227 391.99 30.9807 392.987C31.5387 393.984 32.1035 394.97 32.675 395.944C33.2465 396.918 33.8246 397.881 34.4095 398.833C35.0137 399.817 35.625 400.789 36.2434 401.748C36.8641 402.712 37.492 403.664 38.1268 404.604C38.7617 405.544 39.4035 406.472 40.0524 407.389C40.7136 408.323 41.3821 409.246 42.0577 410.156C42.7415 411.078 43.4327 411.987 44.131 412.885C44.8294 413.782 45.5349 414.667 46.2477 415.541C46.9682 416.424 47.696 417.295 48.431 418.154C49.1767 419.025 49.9299 419.884 50.6904 420.731C51.4509 421.578 52.2188 422.413 52.9939 423.236C53.7739 424.064 54.5612 424.88 55.3558 425.684C56.1608 426.498 56.9732 427.3 57.7929 428.09C58.6127 428.88 59.4399 429.658 60.2743 430.424C61.1119 431.193 61.9567 431.95 62.8088 432.695C63.669 433.447 64.5365 434.187 65.4113 434.915C66.2861 435.643 67.1683 436.359 68.0576 437.064C68.9487 437.769 69.847 438.464 70.7525 439.146C71.6626 439.832 72.58 440.507 73.5045 441.17C74.429 441.833 75.3606 442.485 76.2993 443.125C77.2384 443.765 78.1846 444.395 79.1377 445.013C80.0919 445.632 81.0531 446.24 82.0212 446.836C82.9893 447.433 83.9642 448.019 84.946 448.594C85.9267 449.169 86.9142 449.732 87.9084 450.286C88.9005 450.838 89.8992 451.379 90.9044 451.911C91.9097 452.442 92.9215 452.963 93.9397 453.473C94.9555 453.983 95.9778 454.482 97.0064 454.972C98.03 455.459 99.0599 455.937 100.096 456.404C101.132 456.872 102.174 457.33 103.222 457.779C104.267 458.226 105.318 458.664 106.375 459.092C107.424 459.518 108.479 459.934 109.54 460.342C110.601 460.749 111.668 461.148 112.74 461.538C113.808 461.926 114.882 462.306 115.962 462.678C117.032 463.046 118.106 463.405 119.187 463.756C120.267 464.108 121.353 464.451 122.444 464.786C123.531 465.121 124.624 465.447 125.722 465.765C126.807 466.08 127.897 466.387 128.992 466.687C130.087 466.987 131.187 467.279 132.292 467.564C133.396 467.849 134.504 468.126 135.617 468.397C136.714 468.663 137.815 468.923 138.921 469.175C140.027 469.428 141.137 469.674 142.252 469.914C143.367 470.153 144.486 470.386 145.61 470.612C146.717 470.835 147.828 471.052 148.943 471.263C150.057 471.474 151.174 471.678 152.296 471.876C153.417 472.075 154.543 472.268 155.673 472.454C156.79 472.639 157.911 472.818 159.036 472.992C160.154 473.164 161.276 473.332 162.402 473.493C163.528 473.655 164.658 473.812 165.791 473.963C166.917 474.114 168.047 474.259 169.18 474.4C170.302 474.539 171.426 474.673 172.555 474.802C173.683 474.932 174.815 475.057 175.95 475.177C177.084 475.297 178.222 475.413 179.363 475.524C180.486 475.633 181.612 475.738 182.741 475.839C183.871 475.94 185.003 476.037 186.138 476.129C187.274 476.222 188.412 476.311 189.554 476.396C190.684 476.479 191.817 476.56 192.953 476.636C194.082 476.712 195.214 476.784 196.349 476.853C197.484 476.921 198.621 476.986 199.761 477.048C200.899 477.11 202.039 477.168 203.182 477.223C204.31 477.277 205.441 477.328 206.575 477.376C207.708 477.423 208.844 477.468 209.983 477.51C211.122 477.552 212.263 477.591 213.406 477.627C214.539 477.662 215.674 477.695 216.812 477.725C217.944 477.755 219.078 477.782 220.215 477.807C221.351 477.832 222.49 477.854 223.631 477.873C224.771 477.893 225.912 477.91 227.056 477.925C228.187 477.94 229.319 477.952 230.454 477.962C231.588 477.973 232.725 477.981 233.864 477.987C235.002 477.993 236.143 477.997 237.285 477.999C237.856 478 238.428 478 239 478C239.572 478 240.144 478 240.715 477.999C241.857 477.997 242.998 477.993 244.137 477.987C245.275 477.981 246.412 477.973 247.546 477.962C248.681 477.952 249.813 477.94 250.944 477.925C252.088 477.91 253.229 477.893 254.369 477.873C255.51 477.854 256.649 477.832 257.785 477.807C258.922 477.782 260.056 477.755 261.188 477.725C262.326 477.695 263.461 477.662 264.594 477.627C265.737 477.591 266.878 477.552 268.017 477.51C269.156 477.468 270.292 477.423 271.425 477.376C272.559 477.328 273.69 477.277 274.818 477.223C275.961 477.168 277.101 477.11 278.239 477.048C279.379 476.986 280.516 476.921 281.651 476.853C282.786 476.784 283.918 476.712 285.047 476.636C286.183 476.559 287.316 476.479 288.446 476.396C289.588 476.311 290.726 476.222 291.862 476.129C292.997 476.037 294.129 475.94 295.259 475.839C296.388 475.738 297.514 475.633 298.637 475.524C299.778 475.413 300.916 475.297 302.05 475.177C303.185 475.057 304.317 474.932 305.445 474.802C306.574 474.673 307.698 474.539 308.82 474.4C309.953 474.259 311.083 474.114 312.209 473.963C313.342 473.812 314.472 473.655 315.598 473.493C316.724 473.332 317.846 473.164 318.964 472.992C320.089 472.818 321.21 472.639 322.327 472.454C323.457 472.267 324.583 472.075 325.704 471.876C326.826 471.678 327.944 471.474 329.057 471.263C330.172 471.052 331.283 470.835 332.39 470.612C333.514 470.386 334.633 470.153 335.748 469.913C336.863 469.674 337.973 469.428 339.079 469.175C340.185 468.922 341.286 468.663 342.383 468.397C343.496 468.126 344.604 467.849 345.708 467.564C346.813 467.279 347.913 466.987 349.008 466.687C350.103 466.387 351.193 466.08 352.278 465.765C353.376 465.447 354.469 465.121 355.556 464.786C356.647 464.451 357.733 464.108 358.813 463.756C359.894 463.405 360.968 463.045 362.038 462.678C363.118 462.306 364.192 461.926 365.26 461.538C366.332 461.148 367.399 460.749 368.46 460.342C369.521 459.934 370.576 459.518 371.625 459.092C372.682 458.664 373.733 458.226 374.778 457.779C375.826 457.33 376.868 456.872 377.904 456.404C378.94 455.937 379.97 455.459 380.994 454.972C382.022 454.482 383.045 453.983 384.06 453.473C385.079 452.963 386.09 452.442 387.096 451.911C388.101 451.379 389.1 450.838 390.092 450.286C391.086 449.732 392.073 449.169 393.054 448.594C394.036 448.019 395.011 447.433 395.979 446.836C396.947 446.24 397.908 445.632 398.862 445.013C399.815 444.395 400.762 443.765 401.701 443.125C402.639 442.484 403.571 441.833 404.496 441.17C405.42 440.507 406.337 439.832 407.248 439.146C408.153 438.464 409.051 437.769 409.942 437.063C410.832 436.359 411.714 435.643 412.589 434.915C413.464 434.187 414.331 433.447 415.191 432.695C416.043 431.95 416.888 431.193 417.726 430.424C418.56 429.658 419.387 428.88 420.207 428.09C421.027 427.3 421.839 426.498 422.644 425.684C423.439 424.88 424.226 424.064 425.006 423.236C425.781 422.413 426.549 421.578 427.31 420.731C428.07 419.884 428.823 419.025 429.569 418.154C430.304 417.295 431.032 416.424 431.752 415.541C432.465 414.667 433.171 413.782 433.869 412.885C434.567 411.987 435.259 411.078 435.942 410.156C436.618 409.246 437.286 408.323 437.948 407.389C438.596 406.472 439.238 405.544 439.873 404.604C440.508 403.664 441.136 402.712 441.757 401.748C442.375 400.788 442.986 399.817 443.591 398.833C444.175 397.881 444.754 396.918 445.325 395.944C445.897 394.969 446.461 393.984 447.019 392.987C447.577 391.99 448.129 390.981 448.673 389.961C449.202 388.97 449.724 387.968 450.24 386.955C450.75 385.955 451.253 384.944 451.75 383.922C452.247 382.9 452.737 381.867 453.221 380.824C453.701 379.787 454.176 378.74 454.643 377.682C455.094 376.664 455.538 375.635 455.976 374.597C456.414 373.558 456.846 372.509 457.272 371.45C457.699 370.391 458.119 369.322 458.533 368.242C458.938 367.185 459.337 366.118 459.731 365.041C460.114 363.993 460.491 362.935 460.863 361.868C461.234 360.801 461.601 359.725 461.961 358.639C462.321 357.552 462.676 356.456 463.025 355.351C463.365 354.275 463.699 353.19 464.027 352.096C464.348 351.027 464.664 349.95 464.975 348.864C465.285 347.777 465.591 346.682 465.891 345.577C466.191 344.473 466.486 343.36 466.775 342.237C467.058 341.14 467.336 340.035 467.609 338.92C467.874 337.839 468.134 336.75 468.389 335.652C468.644 334.554 468.894 333.448 469.14 332.333C469.385 331.219 469.626 330.096 469.861 328.965C470.096 327.84 470.325 326.708 470.55 325.566C470.763 324.479 470.973 323.384 471.178 322.282C471.383 321.18 471.584 320.069 471.78 318.952C471.976 317.834 472.168 316.708 472.355 315.575C472.543 314.442 472.725 313.301 472.904 312.152C473.077 311.036 473.246 309.914 473.41 308.784C473.57 307.682 473.727 306.574 473.879 305.458C474.031 304.343 474.179 303.22 474.323 302.09C474.467 300.961 474.607 299.824 474.743 298.679C474.879 297.535 475.011 296.384 475.138 295.225C475.261 294.112 475.379 292.992 475.494 291.865C475.607 290.756 475.717 289.64 475.822 288.518C475.928 287.396 476.03 286.268 476.128 285.133C476.226 283.998 476.32 282.856 476.41 281.708C476.501 280.56 476.587 279.405 476.67 278.244C476.75 277.12 476.827 275.991 476.9 274.855C476.971 273.745 477.039 272.628 477.104 271.505C477.169 270.383 477.23 269.254 477.287 268.119C477.345 266.985 477.399 265.844 477.45 264.697C477.501 263.55 477.548 262.397 477.592 261.238C477.635 260.092 477.675 258.94 477.711 257.782C477.746 256.675 477.778 255.561 477.806 254.442C477.835 253.323 477.86 252.199 477.883 251.069C477.905 249.939 477.924 248.804 477.94 247.663C477.956 246.522 477.969 245.375 477.978 244.223ZM459.123 171.296L465.414 170.38C465.253 169.275 465.088 168.177 464.919 167.087L458.627 168.063C458.797 169.134 458.962 170.211 459.123 171.296ZM459.583 174.492C459.732 175.565 459.878 176.646 460.019 177.733L466.307 176.931C466.166 175.825 466.021 174.726 465.873 173.634L459.583 174.492ZM460.43 181.019C460.564 182.122 460.693 183.233 460.818 184.351L467.105 183.658C466.98 182.522 466.851 181.394 466.718 180.273L460.43 181.019ZM461.167 187.596C461.278 188.667 461.385 189.745 461.489 190.83L467.776 190.239C467.672 189.137 467.565 188.043 467.454 186.955L461.167 187.596ZM461.788 194.105C461.884 195.204 461.976 196.31 462.065 197.422L468.353 196.927C468.264 195.798 468.172 194.677 468.075 193.562L461.788 194.105ZM462.319 200.78C462.398 201.87 462.473 202.965 462.544 204.067L468.834 203.663C468.762 202.546 468.687 201.436 468.608 200.332L462.319 200.78ZM462.743 207.32C462.806 208.411 462.865 209.508 462.921 210.61L469.214 210.291C469.158 209.174 469.098 208.063 469.034 206.958L462.743 207.32ZM463.079 213.939C463.128 215.054 463.174 216.176 463.216 217.305L469.513 217.067C469.47 215.925 469.424 214.789 469.374 213.66L463.079 213.939ZM463.331 220.67C463.364 221.75 463.394 222.835 463.421 223.925L469.725 223.764C469.697 222.661 469.665 221.564 469.631 220.472L463.331 220.67ZM463.493 227.215C463.514 228.317 463.531 229.425 463.546 230.538L469.856 230.45C469.841 229.324 469.822 228.204 469.8 227.09L463.493 227.215ZM463.58 233.897C463.588 235.022 463.592 236.153 463.594 237.29L469.913 237.273C469.91 236.124 469.904 234.981 469.894 233.844L463.58 233.897ZM463.589 240.71L469.913 240.727C469.91 241.876 469.904 243.018 469.894 244.155L463.565 244.103C463.576 242.977 463.584 241.846 463.589 240.71ZM463.521 247.461C463.504 248.575 463.483 249.682 463.459 250.785L469.8 250.91C469.822 249.795 469.841 248.675 469.856 247.55L463.521 247.461ZM463.377 254.074C463.346 255.164 463.313 256.249 463.276 257.328L469.631 257.528C469.665 256.436 469.697 255.339 469.725 254.236L463.377 254.074ZM463.15 260.693C463.104 261.821 463.055 262.942 463.002 264.058L469.374 264.34C469.424 263.211 469.47 262.075 469.513 260.933L463.15 260.693ZM462.833 267.385C462.773 268.487 462.71 269.584 462.643 270.674L469.034 271.041C469.098 269.937 469.158 268.826 469.214 267.709L462.833 267.385ZM462.432 273.925C462.357 275.027 462.278 276.122 462.196 277.211L468.608 277.668C468.687 276.564 468.762 275.454 468.834 274.337L462.432 273.925ZM461.929 280.567C461.836 281.678 461.739 282.783 461.639 283.882L468.075 284.437C468.172 283.323 468.264 282.201 468.353 281.073L461.929 280.567ZM461.327 287.155C461.219 288.238 461.108 289.316 460.992 290.386L467.454 291.045C467.565 289.957 467.672 288.863 467.776 287.761L461.327 287.155ZM460.63 293.629C460.5 294.745 460.366 295.855 460.228 296.957L466.718 297.727C466.851 296.606 466.98 295.477 467.105 294.341L460.63 293.629ZM459.802 300.239C459.656 301.325 459.507 302.404 459.352 303.476L465.873 304.366C466.022 303.274 466.166 302.175 466.307 301.068L459.802 300.239ZM458.879 306.668C458.712 307.752 458.542 308.827 458.368 309.896L464.919 310.913C465.088 309.823 465.253 308.725 465.414 307.62L458.879 306.668ZM457.816 313.172C457.627 314.255 457.435 315.331 457.237 316.399L463.822 317.555C464.013 316.464 464.201 315.365 464.383 314.258L457.816 313.172ZM456.634 319.576C456.428 320.626 456.219 321.669 456.004 322.704L462.622 324.006C462.83 322.947 463.034 321.879 463.235 320.804L456.634 319.576ZM455.317 325.935C455.082 327.008 454.842 328.074 454.598 329.131L461.249 330.596C461.487 329.511 461.722 328.418 461.951 327.317L455.317 325.935ZM453.851 332.274C453.598 333.312 453.34 334.341 453.078 335.363L459.76 336.999C460.018 335.949 460.27 334.89 460.518 333.823L453.851 332.274ZM452.253 338.491C451.967 339.547 451.676 340.595 451.38 341.634L458.093 343.458C458.384 342.388 458.67 341.308 458.951 340.219L452.253 338.491ZM450.479 344.719C450.174 345.737 449.864 346.746 449.549 347.747L456.287 349.771C456.598 348.737 456.904 347.694 457.205 346.642L450.479 344.719ZM448.568 350.787C448.227 351.818 447.881 352.839 447.53 353.851L454.289 356.093C454.637 355.045 454.98 353.986 455.318 352.918L448.568 350.787ZM446.462 356.852C446.102 357.841 445.737 358.821 445.366 359.792L452.138 362.266C452.507 361.257 452.87 360.238 453.229 359.209L446.462 356.852ZM444.209 362.75C443.811 363.745 443.406 364.73 442.997 365.706L449.771 368.432C450.181 367.414 450.585 366.386 450.984 365.348L444.209 362.75ZM441.754 368.596C441.336 369.548 440.912 370.489 440.483 371.422L447.247 374.412C447.678 373.436 448.105 372.45 448.526 371.453L441.754 368.596ZM439.13 374.29C438.672 375.24 438.208 376.18 437.738 377.11L444.475 380.386C444.95 379.408 445.42 378.42 445.883 377.422L439.13 374.29ZM436.315 379.862C435.831 380.778 435.34 381.684 434.844 382.581L441.536 386.152C442.04 385.207 442.539 384.251 443.032 383.284L436.315 379.862ZM433.299 385.308C432.78 386.205 432.255 387.091 431.724 387.967L438.346 391.851C438.89 390.923 439.427 389.985 439.959 389.036L433.299 385.308ZM430.117 390.556C429.56 391.435 428.997 392.303 428.427 393.161L434.954 397.366C435.541 396.455 436.122 395.532 436.696 394.598L430.117 390.556ZM426.699 395.707C426.118 396.542 425.532 397.367 424.939 398.183L431.343 402.715C431.957 401.846 432.565 400.967 433.167 400.075L426.699 395.707ZM423.114 400.638C422.494 401.453 421.868 402.258 421.236 403.053L427.483 407.915C428.143 407.067 428.797 406.207 429.444 405.334L423.114 400.638ZM419.325 405.401C418.676 406.18 418.022 406.948 417.361 407.707L423.422 412.894C424.116 412.083 424.803 411.26 425.484 410.426L419.325 405.401ZM415.335 409.979C414.655 410.725 413.969 411.461 413.276 412.187L419.118 417.69C419.849 416.914 420.573 416.126 421.29 415.327L415.335 409.979ZM411.171 414.343C410.454 415.06 409.732 415.767 409.003 416.464L414.595 422.267C415.367 421.523 416.133 420.766 416.892 419.998L411.171 414.343ZM406.8 418.522C406.057 419.2 405.308 419.868 404.553 420.527L409.869 426.607C410.672 425.906 411.468 425.192 412.257 424.467L406.8 418.522ZM402.248 422.49C401.473 423.134 400.693 423.769 399.906 424.394L404.922 430.726C405.76 430.063 406.592 429.387 407.417 428.7L402.248 422.49ZM397.521 426.244C396.714 426.855 395.902 427.456 395.084 428.047L399.784 434.6C400.657 433.974 401.522 433.338 402.381 432.691L397.521 426.244ZM392.608 429.794C391.775 430.368 390.935 430.933 390.09 431.488L394.463 438.23C395.364 437.646 396.258 437.051 397.145 436.446L392.608 429.794ZM387.529 433.13C386.667 433.669 385.799 434.199 384.926 434.719L388.968 441.619C389.898 441.074 390.82 440.52 391.736 439.955L387.529 433.13ZM382.284 436.255C381.397 436.758 380.504 437.253 379.606 437.738L383.319 444.764C384.273 444.26 385.22 443.746 386.161 443.222L382.284 436.255ZM376.886 439.17C375.973 439.639 375.054 440.099 374.13 440.55L377.52 447.674C378.499 447.208 379.471 446.733 380.436 446.249L376.886 439.17ZM371.345 441.876C370.408 442.31 369.466 442.736 368.518 443.154L371.598 450.349C372.598 449.921 373.591 449.484 374.579 449.038L371.345 441.876ZM365.659 444.381C364.704 444.78 363.744 445.171 362.779 445.554L365.562 452.798C366.577 452.408 367.585 452.01 368.588 451.603L365.659 444.381ZM359.858 446.682C358.88 447.05 357.896 447.41 356.907 447.762L359.409 455.036C360.445 454.68 361.475 454.315 362.498 453.943L359.858 446.682ZM353.945 448.789C352.949 449.124 351.948 449.452 350.943 449.773L353.183 457.061C354.232 456.739 355.276 456.409 356.314 456.071L353.945 448.789ZM347.911 450.713C346.905 451.016 345.894 451.312 344.878 451.6L346.874 458.892C347.93 458.603 348.981 458.307 350.026 458.004L347.911 450.713ZM341.808 452.449C340.778 452.725 339.744 452.994 338.705 453.257L340.475 460.542C341.551 460.281 342.623 460.013 343.689 459.738L341.808 452.449ZM335.614 454.015C334.576 454.262 333.534 454.502 332.488 454.736L334.05 462.01C335.131 461.778 336.207 461.54 337.278 461.295L335.614 454.015ZM329.328 455.421C328.284 455.64 327.236 455.853 326.183 456.06L327.555 463.319C328.639 463.114 329.718 462.904 330.793 462.687L329.328 455.421ZM323.013 456.665C321.949 456.861 320.882 457.051 319.811 457.235L321.008 464.476C322.108 464.295 323.204 464.107 324.296 463.915L323.013 456.665ZM316.615 457.767C315.55 457.938 314.481 458.104 313.408 458.265L314.447 465.489C315.546 465.331 316.641 465.168 317.731 465L316.615 457.767ZM310.173 458.732C309.096 458.881 308.016 459.026 306.931 459.166L307.825 466.373C308.933 466.236 310.038 466.094 311.138 465.947L310.173 458.732ZM303.697 459.567C302.614 459.696 301.527 459.821 300.437 459.941L301.199 467.133C302.311 467.015 303.419 466.893 304.523 466.767L303.697 459.567ZM297.153 460.287C296.071 460.396 294.986 460.501 293.897 460.602L294.539 467.782C295.647 467.683 296.752 467.58 297.853 467.473L297.153 460.287ZM290.618 460.892C289.52 460.985 288.419 461.074 287.315 461.158L287.847 468.329C288.97 468.245 290.088 468.158 291.203 468.067L290.618 460.892ZM284.023 461.399C282.928 461.475 281.83 461.547 280.729 461.616L281.163 468.779C282.28 468.711 283.394 468.64 284.505 468.565L284.023 461.399ZM277.414 461.811C276.308 461.872 275.199 461.93 274.087 461.985L274.431 469.144C275.558 469.089 276.681 469.032 277.802 468.971L277.414 461.811ZM270.782 462.137C269.677 462.185 268.569 462.23 267.458 462.271L267.72 469.428C268.845 469.387 269.966 469.342 271.084 469.295L270.782 462.137ZM264.115 462.387C263.008 462.422 261.898 462.454 260.785 462.484L260.975 469.641C262.099 469.611 263.221 469.579 264.34 469.543L264.115 462.387ZM257.454 462.564C256.34 462.588 255.224 462.61 254.106 462.629L254.229 469.789C255.359 469.769 256.486 469.747 257.61 469.723L257.454 462.564ZM250.746 462.678C249.636 462.692 248.523 462.704 247.409 462.713L247.473 469.878C248.598 469.868 249.72 469.855 250.839 469.84L250.746 462.678ZM244.056 462.735C242.936 462.74 241.814 462.743 240.689 462.744L240.701 469.914C241.835 469.912 242.966 469.908 244.094 469.902L244.056 462.735ZM237.311 462.741C236.187 462.738 235.064 462.733 233.944 462.726L233.906 469.902C235.034 469.908 236.165 469.912 237.299 469.914L237.311 462.741ZM230.591 462.697C229.477 462.686 228.365 462.672 227.255 462.655L227.161 469.84C228.28 469.855 229.402 469.868 230.527 469.878L230.591 462.697ZM223.895 462.598C222.777 462.576 221.661 462.552 220.547 462.525L220.39 469.723C221.514 469.747 222.641 469.769 223.771 469.789L223.895 462.598ZM217.216 462.437C216.104 462.404 214.994 462.369 213.887 462.331L213.66 469.543C214.779 469.579 215.901 469.611 217.026 469.641L217.216 462.437ZM210.545 462.206C209.434 462.161 208.326 462.114 207.221 462.063L206.916 469.295C208.034 469.342 209.155 469.387 210.28 469.428L210.545 462.206ZM203.917 461.9C202.806 461.842 201.697 461.781 200.591 461.715L200.198 468.971C201.319 469.032 202.442 469.089 203.569 469.144L203.917 461.9ZM197.277 461.509C196.177 461.437 195.079 461.361 193.985 461.281L193.495 468.565C194.606 468.64 195.72 468.711 196.837 468.779L197.277 461.509ZM190.695 461.029C189.591 460.94 188.491 460.847 187.394 460.75L186.797 468.067C187.912 468.158 189.03 468.245 190.153 468.329L190.695 461.029ZM184.117 460.448C183.029 460.342 181.945 460.233 180.864 460.119L180.147 467.473C181.248 467.58 182.353 467.683 183.461 467.782L184.117 460.448ZM177.582 459.76C176.493 459.635 175.408 459.506 174.325 459.372L173.477 466.767C174.581 466.893 175.689 467.015 176.801 467.133L177.582 459.76ZM171.095 458.957C170.012 458.812 168.932 458.663 167.857 458.508L166.862 465.947C167.962 466.094 169.067 466.236 170.175 466.373L171.095 458.957ZM164.626 458.026C163.555 457.86 162.488 457.689 161.425 457.513L160.269 465C161.359 465.168 162.454 465.331 163.553 465.489L164.626 458.026ZM158.234 456.966C157.165 456.776 156.099 456.58 155.038 456.379L153.705 463.915C154.796 464.107 155.892 464.295 156.992 464.477L158.234 456.966ZM151.874 455.759C150.824 455.546 149.778 455.328 148.736 455.103L147.207 462.687C148.282 462.904 149.361 463.114 150.445 463.319L151.874 455.759ZM145.584 454.401C144.541 454.162 143.501 453.916 142.467 453.663L140.722 461.295C141.793 461.54 142.869 461.778 143.95 462.01L145.584 454.401ZM139.384 452.889C138.349 452.62 137.318 452.345 136.291 452.064L134.311 459.738C135.377 460.013 136.449 460.281 137.525 460.542L139.384 452.889ZM133.232 451.198C132.22 450.904 131.213 450.602 130.21 450.294L127.974 458.004C129.019 458.307 130.07 458.603 131.126 458.892L133.232 451.198ZM127.191 449.337C126.19 449.011 125.194 448.678 124.202 448.337L121.686 456.071C122.725 456.409 123.768 456.739 124.818 457.061L127.191 449.337ZM121.254 447.294C120.27 446.937 119.291 446.571 118.318 446.198L115.502 453.943C116.525 454.315 117.555 454.68 118.591 455.036L121.254 447.294ZM115.413 445.055C114.453 444.667 113.499 444.271 112.549 443.867L109.412 451.603C110.415 452.01 111.423 452.408 112.438 452.798L115.413 445.055ZM109.708 442.626C108.766 442.203 107.83 441.773 106.9 441.334L103.422 449.038C104.409 449.484 105.403 449.921 106.402 450.349L109.708 442.626ZM104.134 439.996C103.217 439.541 102.305 439.077 101.398 438.604L97.5637 446.249C98.5292 446.733 99.5013 447.208 100.48 447.674L104.134 439.996ZM98.699 437.161C97.8079 436.672 96.9223 436.175 96.0425 435.669L91.839 443.222C92.7797 443.746 93.7271 444.26 94.6811 444.764L98.699 437.161ZM93.4228 434.124C92.5571 433.601 91.6971 433.069 90.8429 432.527L86.2636 439.955C87.1796 440.52 88.1024 441.074 89.032 441.619L93.4228 434.124ZM88.3046 430.879C87.4674 430.322 86.636 429.756 85.8106 429.181L80.8549 436.446C81.7419 437.051 82.6358 437.646 83.5367 438.23L88.3046 430.879ZM83.3582 427.43C82.5481 426.838 81.7439 426.237 80.9457 425.626L75.6193 432.691C76.4779 433.338 77.3435 433.974 78.2161 434.6L83.3582 427.43ZM78.5845 423.775C77.8057 423.151 77.0328 422.516 76.266 421.872L70.5832 428.7C71.4085 429.387 72.24 430.063 73.0778 430.726L78.5845 423.775ZM73.9849 419.911C73.2377 419.254 72.4965 418.587 71.7613 417.911L65.7426 424.467C66.5323 425.192 67.3284 425.906 68.1307 426.608L73.9849 419.911ZM69.5813 415.858C68.8601 415.163 68.145 414.458 67.4361 413.743L61.1081 419.998C61.8671 420.766 62.6327 421.523 63.4046 422.267L69.5813 415.858ZM65.3523 411.594C64.667 410.872 63.9877 410.139 63.3144 409.396L56.7096 415.327C57.4272 416.126 58.1513 416.914 58.8817 417.69L65.3523 411.594ZM61.3093 407.133C60.6551 406.378 60.0069 405.613 59.3648 404.838L52.5165 410.426C53.1972 411.26 53.8844 412.083 54.5779 412.894L61.3093 407.133ZM57.4724 402.502C56.8459 401.711 56.2255 400.91 55.6111 400.099L48.5558 405.335C49.2029 406.207 49.8566 407.067 50.5166 407.915L57.4724 402.502ZM53.8029 397.658C53.2157 396.847 52.6343 396.026 52.0588 395.195L44.8327 400.075C45.4347 400.967 46.043 401.846 46.6574 402.715L53.8029 397.658ZM50.3448 392.664C49.7797 391.811 49.2206 390.948 48.6677 390.074L41.3039 394.598C41.8781 395.533 42.4588 396.455 43.0458 397.366L50.3448 392.664ZM47.0737 387.499C46.5463 386.628 46.0248 385.747 45.5091 384.856L38.0409 389.036C38.5726 389.985 39.1104 390.924 39.6543 391.851L47.0737 387.499ZM43.9745 382.144C43.4816 381.252 42.9943 380.351 42.5129 379.441L34.968 383.284C35.4608 384.251 35.9596 385.207 36.4642 386.152L43.9745 382.144ZM41.0983 376.704C40.6308 375.779 40.169 374.844 39.7131 373.899L32.1167 377.422C32.5802 378.421 33.0496 379.409 33.5249 380.386L41.0983 376.704ZM38.3674 371.046C37.9399 370.118 37.5178 369.182 37.1011 368.235L29.4745 371.453C29.8953 372.45 30.3215 373.436 30.7533 374.412L38.3674 371.046ZM35.8637 365.36C35.4555 364.389 35.0528 363.409 34.6558 362.419L27.0165 365.348C27.4149 366.386 27.819 367.414 28.2288 368.432L35.8637 365.36ZM33.5025 359.475C33.1327 358.508 32.7681 357.533 32.4087 356.549L24.771 359.209C25.1295 360.238 25.4934 361.257 25.8624 362.266L33.5025 359.475ZM31.3435 353.561C30.9928 352.553 30.6475 351.537 30.3075 350.511L22.6824 352.918C23.0199 353.986 23.3627 355.045 23.7109 356.093L31.3435 353.561ZM29.3282 347.483C29.0136 346.487 28.704 345.482 28.3994 344.468L20.7953 346.642C21.0962 347.694 21.402 348.737 21.7128 349.771L29.3282 347.483ZM27.4985 341.395C27.2025 340.36 26.9116 339.317 26.6258 338.264L19.0491 340.219C19.3302 341.308 19.6162 342.388 19.9073 343.458L27.4985 341.395ZM25.801 335.148C25.5385 334.13 25.2806 333.104 25.0273 332.07L17.4817 333.823C17.7298 334.89 17.9824 335.949 18.2396 336.999L25.801 335.148ZM24.2804 328.938C24.0357 327.884 23.7957 326.822 23.5605 325.752L16.0489 327.317C16.2784 328.418 16.5126 329.511 16.7514 330.596L24.2804 328.938ZM22.8722 322.532C22.6578 321.5 22.4477 320.46 22.242 319.413L14.7655 320.804C14.9655 321.879 15.1698 322.947 15.3783 324.006L22.8722 322.532ZM21.6371 316.245C21.4396 315.181 21.2465 314.108 21.0579 313.028L13.6166 314.258C13.7995 315.365 13.9867 316.464 14.1782 317.555L21.6371 316.245ZM20.5045 309.761C20.3295 308.695 20.1588 307.622 19.9923 306.542L12.586 307.62C12.7468 308.725 12.9118 309.823 13.0809 310.913L20.5045 309.761ZM19.5171 303.358C19.3626 302.288 19.2122 301.212 19.0658 300.129L11.6926 301.069C11.8335 302.175 11.9785 303.274 12.1274 304.366L19.5171 303.358ZM18.6387 296.854C18.5003 295.754 18.366 294.648 18.2359 293.534L10.8947 294.342C11.0197 295.478 11.1486 296.606 11.2816 297.727L18.6387 296.854ZM17.8719 290.298C17.7562 289.23 17.6443 288.155 17.5361 287.074L10.2241 287.761C10.3277 288.863 10.4348 289.957 10.5456 291.045L17.8719 290.298ZM17.2227 283.807C17.1219 282.711 17.025 281.609 16.9318 280.499L9.64712 281.073C9.73593 282.202 9.82843 283.323 9.9246 284.438L17.2227 283.807ZM16.6637 277.15C16.5809 276.063 16.5017 274.97 16.4261 273.87L9.16623 274.337C9.23795 275.454 9.31316 276.564 9.39185 277.668L16.6637 277.15ZM16.2146 270.625C16.1475 269.536 16.0839 268.442 16.0238 267.342L8.78576 267.709C8.84243 268.826 8.90248 269.937 8.9659 271.042L16.2146 270.625ZM15.8539 264.02C15.8007 262.907 15.7511 261.787 15.705 260.661L8.48653 260.933C8.52959 262.075 8.57606 263.211 8.62594 264.34L15.8539 264.02ZM15.5786 257.301C15.5415 256.224 15.5077 255.141 15.477 254.052L8.27519 254.236C8.30333 255.339 8.33457 256.436 8.36888 257.528L15.5786 257.301ZM15.3946 250.768C15.3704 249.667 15.3493 248.561 15.3315 247.449L8.14359 247.55C8.1593 248.676 8.17813 249.796 8.20007 250.91L15.3946 250.768ZM15.2877 244.096L8.10585 244.156C8.0964 243.019 8.09009 241.876 8.08693 240.727L15.2633 240.707C15.2682 241.843 15.2763 242.972 15.2877 244.096ZM15.2584 237.293C15.2601 236.158 15.2649 235.028 15.273 233.904L8.10585 233.845C8.0964 234.982 8.09009 236.124 8.08693 237.273L15.2584 237.293ZM15.3069 230.551C15.3213 229.439 15.339 228.332 15.3599 227.232L8.20006 227.09C8.17813 228.205 8.15929 229.325 8.14359 230.45L15.3069 230.551ZM15.4321 223.947C15.4593 222.858 15.4897 221.775 15.5232 220.697L8.36887 220.472C8.33456 221.564 8.30333 222.661 8.27519 223.764L15.4321 223.947ZM15.6386 217.337C15.681 216.211 15.7269 215.09 15.7762 213.976L8.62593 213.66C8.57606 214.789 8.52958 215.925 8.48653 217.067L15.6386 217.337ZM15.9347 210.654C15.991 209.553 16.0507 208.458 16.1139 207.37L8.96589 206.959C8.90248 208.063 8.84242 209.174 8.78576 210.291L15.9347 210.654ZM16.3137 204.123C16.3853 203.023 16.4605 201.929 16.5392 200.842L9.39184 200.332C9.31315 201.436 9.23794 202.546 9.16623 203.663L16.3137 204.123ZM16.7947 197.49C16.8836 196.38 16.9763 195.277 17.0728 194.18L9.92459 193.563C9.82842 194.677 9.73592 195.799 9.64711 196.927L16.7947 197.49ZM17.3733 190.911C17.4771 189.829 17.5847 188.753 17.696 187.684L10.5456 186.955C10.4348 188.043 10.3277 189.137 10.2241 190.239L17.3733 190.911ZM18.0466 184.446C18.172 183.331 18.3016 182.223 18.4353 181.122L11.2816 180.273C11.1486 181.394 11.0196 182.523 10.8947 183.659L18.0466 184.446ZM18.8483 177.844C18.9899 176.759 19.1356 175.681 19.2853 174.611L12.1274 173.634C11.9785 174.726 11.8335 175.825 11.6925 176.932L18.8483 177.844ZM19.7462 171.423C19.9077 170.341 20.0735 169.266 20.2435 168.199L13.0809 167.087C12.9118 168.177 12.7468 169.275 12.586 170.38L19.7462 171.423ZM20.7816 164.926C20.9651 163.844 21.1531 162.77 21.3455 161.703L14.1781 160.445C13.9866 161.536 13.7994 162.635 13.6166 163.742L20.7816 164.926ZM21.9349 158.53C22.1355 157.481 22.3404 156.439 22.5496 155.405L15.3783 153.994C15.1698 155.053 14.9655 156.121 14.7655 157.196L21.9349 158.53ZM23.2217 152.178C23.4515 151.105 23.686 150.04 23.9253 148.984L16.7514 147.404C16.5126 148.489 16.2784 149.582 16.0488 150.683L23.2217 152.178ZM24.656 145.844C24.9039 144.807 25.1564 143.778 25.4136 142.757L18.2396 141.001C17.9824 142.051 17.7298 143.11 17.4817 144.177L24.656 145.844ZM26.2218 139.632C26.502 138.576 26.7873 137.529 27.0776 136.49L19.9073 134.542C19.6162 135.612 19.3301 136.692 19.0491 137.781L26.2218 139.632ZM27.9619 133.407C28.2611 132.389 28.5652 131.381 28.8742 130.381L21.7127 128.229C21.402 129.263 21.0962 130.306 20.7953 131.358L27.9619 133.407ZM29.837 127.341C30.1714 126.31 30.5112 125.289 30.8564 124.277L23.7108 121.907C23.3627 122.955 23.0199 124.014 22.6824 125.082L29.837 127.341ZM31.9052 121.276C32.2593 120.287 32.6186 119.307 32.9831 118.335L25.8624 115.734C25.4933 116.743 25.1295 117.762 24.7709 118.791L31.9052 121.276ZM34.1204 115.376C34.5122 114.381 34.9097 113.395 35.3127 112.418L28.2288 109.568C27.819 110.586 27.4149 111.614 27.0164 112.653L34.1204 115.376ZM36.535 109.526C36.9469 108.574 37.3642 107.631 37.7869 106.697L30.7533 103.588C30.3215 104.564 29.8952 105.55 29.4745 106.547L36.535 109.526ZM39.1184 103.825C39.5698 102.874 40.0271 101.932 40.4901 101.001L33.5249 97.6144C33.0496 98.5915 32.5802 99.5795 32.1167 100.578L39.1184 103.825ZM41.8922 98.2433C42.3697 97.3254 42.853 96.4172 43.342 95.5188L36.4642 91.8481C35.9595 92.7932 35.4608 93.7492 34.9679 94.7162L41.8922 98.2433ZM44.8657 92.7839C45.378 91.8852 45.8962 90.9965 46.4204 90.1178L39.6542 86.1495C39.1103 87.0765 38.5725 88.0148 38.0409 88.9645L44.8657 92.7839ZM48.0057 87.5194C48.556 86.6374 49.1125 85.7657 49.6751 84.9043L43.0458 80.6337C42.4588 81.5448 41.8781 82.4675 41.3038 83.4021L48.0057 87.5194ZM51.3829 82.3485C51.9566 81.5091 52.5364 80.6798 53.1221 79.8605L46.6574 75.2854C46.0429 76.1537 45.4347 77.0335 44.8327 77.9249L51.3829 82.3485ZM54.9268 77.393C55.5403 76.5729 56.16 75.7632 56.786 74.9638L50.5165 70.0848C49.8565 70.9331 49.2029 71.7933 48.5558 72.6655L54.9268 77.393ZM58.6778 72.6015C59.3202 71.8174 59.9687 71.0435 60.6234 70.2798L54.5779 65.1064C53.8843 65.9172 53.1972 66.7397 52.5165 67.5742L58.6778 72.6015ZM62.6312 67.9905C63.3057 67.2388 63.9864 66.4974 64.6732 65.766L58.8817 60.3105C58.1512 61.0863 57.4272 61.8739 56.7096 62.6735L62.6312 67.9905ZM66.7628 63.5913C67.474 62.8677 68.1916 62.1545 68.9153 61.4515L63.4046 55.7331C62.6326 56.4774 61.8671 57.2336 61.108 58.002L66.7628 63.5913ZM71.1041 59.3737C71.8426 58.6886 72.5872 58.0137 73.338 57.3488L68.1306 51.3926C67.3283 52.0943 66.5322 52.8077 65.7426 53.5329L71.1041 59.3737ZM75.6308 55.3647C76.4018 54.713 77.1789 54.0712 77.9622 53.4394L73.0778 47.2736C72.24 47.9374 71.4084 48.6127 70.5832 49.2997L75.6308 55.3647ZM80.3375 51.5677C81.1406 50.9495 81.9499 50.3413 82.7652 49.7429L78.216 43.3997C77.3434 44.0256 76.4778 44.6621 75.6193 45.3093L80.3375 51.5677ZM85.2337 47.9736C86.0647 47.392 86.9018 46.8202 87.7448 46.2579L83.5367 39.7698C82.6358 40.3541 81.7418 40.9488 80.8548 41.5539L85.2337 47.9736ZM90.3008 44.5937C91.1609 44.0471 92.0271 43.51 92.8991 42.9822L89.0319 36.3809C88.1023 36.9256 87.1795 37.4803 86.2635 38.0451L90.3008 44.5937ZM95.5375 41.4241C96.4236 40.9136 97.3155 40.4123 98.2132 39.9201L94.681 33.2361C93.727 33.7403 92.7796 34.2542 91.839 34.7777L95.5375 41.4241ZM100.932 38.4663C101.845 37.9903 102.763 37.5234 103.687 37.0652L100.48 30.326C99.5012 30.7919 98.5292 31.2669 97.5636 31.7514L100.932 38.4663ZM106.472 35.7193C107.409 35.2779 108.352 34.8453 109.3 34.4212L106.402 27.6511C105.402 28.0792 104.409 28.5161 103.421 28.9619L106.472 35.7193ZM112.161 33.1744C113.116 32.7688 114.077 32.3716 115.043 31.9825L112.438 25.2022C111.423 25.592 110.415 25.9902 109.412 26.3969L112.161 33.1744ZM117.967 30.8361C118.946 30.4622 119.931 30.0964 120.921 29.7384L118.591 22.9643C117.555 23.3205 116.525 23.6847 115.502 24.057L117.967 30.8361ZM123.887 28.6947C124.884 28.3535 125.886 28.0199 126.893 27.6939L124.817 20.9388C123.768 21.2612 122.724 21.5911 121.686 21.9287L123.887 28.6947ZM129.93 26.7383C130.937 26.4301 131.95 26.129 132.967 25.8351L131.126 19.1084C130.07 19.3973 129.019 19.6933 127.974 19.9965L129.93 26.7383ZM136.043 24.9722C137.074 24.6912 138.11 24.4171 139.151 24.1499L137.525 17.4579C136.449 17.7192 135.377 17.9873 134.311 18.2622L136.043 24.9722ZM142.248 23.3783C143.287 23.127 144.331 22.8823 145.379 22.644L143.95 15.9902C142.869 16.2221 141.793 16.4604 140.722 16.705L142.248 23.3783ZM148.544 21.9467C149.59 21.7235 150.64 21.5064 151.695 21.2953L150.445 14.6812C149.361 14.8859 148.282 15.0964 147.207 15.3128L148.544 21.9467ZM154.871 20.6797C155.937 20.4799 157.006 20.2861 158.079 20.098L156.992 13.5235C155.892 13.7053 154.796 13.8926 153.704 14.0855L154.871 20.6797ZM161.281 19.5556C162.348 19.381 163.418 19.2118 164.493 19.048L163.553 12.5115C162.454 12.6693 161.359 12.8323 160.269 13.0004L161.281 19.5556ZM167.733 18.5713C168.812 18.4184 169.895 18.2705 170.981 18.1277L170.175 11.6268C169.067 11.7641 167.962 11.9061 166.862 12.053L167.733 18.5713ZM174.221 17.7175C175.306 17.5854 176.394 17.4581 177.486 17.3354L176.801 10.8669C175.689 10.9846 174.581 11.1066 173.477 11.2332L174.221 17.7175ZM180.776 16.9806C181.86 16.8686 182.947 16.7609 184.037 16.6575L183.461 10.2179C182.353 10.3169 181.248 10.4199 180.147 10.5271L180.776 16.9806ZM187.321 16.3594C188.421 16.2641 189.523 16.173 190.629 16.0858L190.153 9.67142C189.03 9.75476 187.912 9.84189 186.797 9.93291L187.321 16.3594ZM193.926 15.8381C195.022 15.7598 196.122 15.6853 197.224 15.6143L196.837 9.22144C195.72 9.28915 194.606 9.36029 193.495 9.43499L193.926 15.8381ZM200.544 15.4121C201.651 15.3483 202.762 15.2881 203.875 15.2312L203.569 8.85633C202.442 8.91053 201.319 8.96793 200.198 9.02865L200.544 15.4121ZM207.185 15.0723C208.291 15.0225 209.401 14.9758 210.513 14.9323L210.28 8.57208C209.155 8.61348 208.034 8.65779 206.916 8.70512L207.185 15.0723ZM213.86 14.8105C214.968 14.7732 216.08 14.7388 217.193 14.7071L217.025 8.35883C215.901 8.38873 214.779 8.42128 213.66 8.45659L213.86 14.8105ZM220.528 14.6207C221.643 14.5945 222.76 14.571 223.88 14.55L223.771 8.21113C222.641 8.23076 221.514 8.25281 220.39 8.27738L220.528 14.6207ZM227.244 14.4944C228.355 14.4785 229.468 14.4649 230.584 14.4535L230.527 8.1222C229.402 8.13244 228.28 8.14485 227.161 8.15952L227.244 14.4944ZM233.939 14.4259C235.061 14.4189 236.184 14.4139 237.309 14.411L237.299 8.08602C236.165 8.08797 235.034 8.0919 233.906 8.09789L233.939 14.4259ZM240.69 14.4081C241.816 14.409 242.939 14.4119 244.061 14.4168L244.094 8.09789C242.966 8.0919 241.835 8.08797 240.701 8.08602L240.69 14.4081ZM247.416 14.4379C248.532 14.447 249.645 14.4583 250.757 14.4719L250.839 8.15952C249.72 8.14485 248.598 8.13244 247.473 8.12219L247.416 14.4379ZM254.12 14.5201C255.24 14.5386 256.357 14.5595 257.472 14.583L257.609 8.27738C256.486 8.2528 255.359 8.23075 254.229 8.21113L254.12 14.5201ZM260.808 14.6613C261.922 14.6901 263.033 14.7216 264.142 14.756L264.34 8.45658C263.221 8.42128 262.099 8.38873 260.974 8.35882L260.808 14.6613ZM267.489 14.8687C268.602 14.9091 269.711 14.9526 270.818 14.9992L271.084 8.70511C269.966 8.65779 268.845 8.61348 267.72 8.57208L267.489 14.8687ZM274.129 15.1482C275.242 15.2017 276.353 15.2585 277.461 15.3187L277.802 9.02864C276.681 8.96793 275.558 8.91053 274.431 8.85633L274.129 15.1482ZM280.782 15.5101C281.885 15.5774 282.985 15.6482 284.082 15.7228L284.505 9.43498C283.394 9.36028 282.28 9.28914 281.163 9.22144L280.782 15.5101ZM287.381 15.9587C288.487 16.0419 289.59 16.1291 290.69 16.2203L291.203 9.93291C290.088 9.84188 288.97 9.75476 287.847 9.67141L287.381 15.9587ZM293.977 16.5058C295.068 16.605 296.156 16.7084 297.24 16.816L297.853 10.5271C296.752 10.4199 295.647 10.3169 294.539 10.2179L293.977 16.5058ZM300.532 17.1573C301.625 17.2755 302.715 17.3983 303.801 17.5257L304.523 11.2332C303.419 11.1066 302.311 10.9845 301.198 10.8669L300.532 17.1573ZM307.044 17.9218C308.132 18.0598 309.216 18.2028 310.296 18.3509L311.138 12.053C310.038 11.9061 308.933 11.7641 307.825 11.6268L307.044 17.9218ZM313.541 18.8125C314.617 18.9714 315.689 19.1354 316.758 19.3049L317.731 13.0003C316.641 12.8322 315.546 12.6693 314.447 12.5115L313.541 18.8125ZM319.965 19.8317C321.04 20.0146 322.111 20.2031 323.178 20.3974L324.295 14.0855C323.204 13.8926 322.108 13.7053 321.008 13.5235L319.965 19.8317ZM326.362 20.9969C327.418 21.2026 328.471 21.4142 329.519 21.632L330.793 15.3127C329.718 15.0964 328.639 14.8859 327.555 14.6812L326.362 20.9969ZM332.692 22.3126C333.743 22.5453 334.79 22.7844 335.832 23.03L337.278 16.7049C336.207 16.4604 335.131 16.2221 334.05 15.9902L332.692 22.3126ZM338.938 23.7849C339.982 24.0464 341.021 24.3148 342.056 24.5901L343.689 18.2621C342.623 17.9873 341.551 17.7192 340.475 17.4579L338.938 23.7849ZM345.142 25.4361C346.163 25.7244 347.179 26.0198 348.191 26.3224L350.026 19.9965C348.981 19.6933 347.93 19.3973 346.874 19.1084L345.142 25.4361ZM351.24 27.2611C352.251 27.5816 353.258 27.9096 354.259 28.2453L356.314 21.9287C355.275 21.5911 354.232 21.2612 353.182 20.9388L351.24 27.2611ZM357.239 29.2727C358.234 29.6253 359.224 29.9857 360.209 30.3543L362.498 24.0569C361.475 23.6847 360.445 23.3205 359.409 22.9643L357.239 29.2727ZM363.148 31.4852C364.12 31.8692 365.086 32.2614 366.047 32.662L368.588 26.3968C367.585 25.9902 366.577 25.592 365.562 25.2021L363.148 31.4852ZM368.925 33.8944C369.88 34.3139 370.829 34.742 371.772 35.1788L374.578 28.9619C373.591 28.516 372.597 28.0792 371.598 27.6511L368.925 33.8944ZM374.576 36.5119C375.507 36.9659 376.432 37.4289 377.352 37.901L380.436 31.7513C379.471 31.2669 378.499 30.7918 377.52 30.326L374.576 36.5119ZM380.091 39.3438C380.996 39.8326 381.895 40.3306 382.789 40.8379L386.161 34.7777C385.22 34.2541 384.273 33.7403 383.319 33.236L380.091 39.3438ZM385.449 42.3873C386.329 42.9124 387.203 43.4471 388.071 43.9913L391.736 38.045C390.82 37.4802 389.898 36.9256 388.968 36.3809L385.449 42.3873ZM390.65 45.6493C391.501 46.2099 392.346 46.7801 393.185 47.3602L397.145 41.5538C396.258 40.9487 395.364 40.3541 394.463 39.7697L390.65 45.6493ZM395.677 49.126C396.501 49.7237 397.318 50.3312 398.129 50.9488L402.381 45.3093C401.522 44.662 400.657 44.0255 399.784 43.3997L395.677 49.126ZM400.528 52.82C401.32 53.452 402.105 54.0941 402.884 54.7463L407.417 49.2996C406.592 48.6126 405.76 47.9374 404.922 47.2736L400.528 52.82ZM405.201 56.7327C405.959 57.3988 406.712 58.0749 407.458 58.7614L412.257 53.5329C411.468 52.8076 410.672 52.0942 409.869 51.3925L405.201 56.7327ZM409.67 60.8444C410.401 61.5494 411.126 62.2647 411.845 62.9906L416.892 58.0019C416.133 57.2336 415.367 56.4773 414.595 55.733L409.67 60.8444ZM413.956 65.173C414.65 65.9071 415.338 66.6515 416.019 67.4063L421.29 62.6734C420.573 61.8738 419.849 61.0862 419.118 60.3104L413.956 65.173ZM418.047 69.7056C418.709 70.4728 419.364 71.2503 420.012 72.0383L425.483 67.5742C424.803 66.7396 424.116 65.9171 423.422 65.1063L418.047 69.7056ZM421.923 74.4123C422.554 75.2157 423.18 76.0296 423.799 76.8541L429.444 72.6654C428.797 71.7932 428.143 70.933 427.483 70.0847L421.923 74.4123ZM425.62 79.335C426.211 80.1587 426.796 80.9925 427.375 81.8367L433.167 77.9248C432.565 77.0334 431.957 76.1537 431.343 75.2854L425.62 79.335ZM429.097 84.407C429.664 85.2731 430.225 86.1497 430.779 87.0369L436.696 83.4021C436.122 82.4675 435.541 81.5447 434.954 80.6336L429.097 84.407ZM432.377 89.6502C432.905 90.5338 433.427 91.4275 433.943 92.3314L439.959 88.9644C439.427 88.0147 438.89 87.0764 438.346 86.1494L432.377 89.6502ZM435.476 95.082C435.968 95.9853 436.455 96.8986 436.935 97.8218L443.032 94.7161C442.539 93.7491 442.04 92.7931 441.536 91.848L435.476 95.082ZM438.345 100.594C438.811 101.531 439.271 102.478 439.724 103.434L445.883 100.578C445.42 99.5794 444.95 98.5914 444.475 97.6143L438.345 100.594ZM441.062 106.322C441.487 107.26 441.906 108.208 442.32 109.165L448.525 106.547C448.105 105.55 447.678 104.564 447.247 103.588L441.062 106.322ZM443.547 112.073C443.951 113.054 444.35 114.044 444.743 115.045L450.984 112.652C450.585 111.614 450.181 110.586 449.771 109.568L443.547 112.073ZM445.884 118.018C446.249 118.994 446.61 119.979 446.965 120.973L453.229 118.791C452.87 117.762 452.507 116.743 452.138 115.733L445.884 118.018ZM448.016 123.988C448.362 125.004 448.702 126.03 449.037 127.065L455.318 125.082C454.98 124.014 454.637 122.955 454.289 121.907L448.016 123.988ZM450.001 130.117C450.311 131.122 450.615 132.135 450.915 133.156L457.205 131.358C456.904 130.306 456.598 129.263 456.287 128.229L450.001 130.117ZM451.799 136.252C452.09 137.294 452.375 138.345 452.656 139.405L458.951 137.781C458.67 136.692 458.384 135.612 458.093 134.542L451.799 136.252ZM453.464 142.542C453.721 143.567 453.973 144.599 454.221 145.64L460.518 144.177C460.27 143.11 460.018 142.051 459.76 141.001L453.464 142.542ZM454.951 148.791C455.19 149.851 455.425 150.919 455.654 151.995L461.951 150.683C461.722 149.581 461.487 148.489 461.249 147.404L454.951 148.791ZM456.326 155.233L462.622 153.994C462.83 155.053 463.034 156.121 463.235 157.196L456.939 158.367C456.739 157.315 456.534 156.27 456.326 155.233ZM457.528 161.55L463.822 160.445C464.013 161.536 464.201 162.635 464.383 163.742L458.09 164.782C457.907 163.697 457.72 162.62 457.528 161.55ZM457.531 238.152C457.531 337.624 432.822 391.478 394.543 420.889C355.878 450.597 301.846 456.681 239.85 456.681C177.857 456.681 123.603 450.598 84.7215 420.88C46.2333 391.462 21.3212 337.608 21.3212 238.152C21.3212 138.695 46.2338 85.0655 84.7055 55.8607C123.584 26.3471 177.836 20.4711 239.85 20.4711C301.867 20.4711 355.897 26.3484 394.559 55.8514C432.822 85.0501 457.531 138.678 457.531 238.152Z" fill="#DD3300"/>
<path fill-rule="evenodd" clip-rule="evenodd" d="M239.488 450.939C356.477 450.939 451.316 428.364 451.316 239.049C451.316 49.7344 356.477 27.1592 239.488 27.1592C122.499 27.1592 27.6602 49.7344 27.6602 239.049C27.6602 428.364 122.499 450.939 239.488 450.939ZM91.3173 209.548C108.781 227.011 131.868 235.366 154.608 234.575C154.525 236.866 154.542 239.16 154.647 241.449C131.904 240.395 108.905 248.483 91.6422 265.746C58.856 298.532 59.1651 352 92.3325 385.168C125.5 418.335 178.968 418.644 211.754 385.858C229.017 368.595 237.105 345.596 236.051 322.853C238.34 322.959 240.635 322.975 242.925 322.893C242.134 345.632 250.489 368.719 267.953 386.183C301.12 419.35 354.588 419.659 387.374 386.873C420.16 354.087 419.851 300.619 386.684 267.452C369.22 249.988 346.133 241.633 323.394 242.424C323.476 240.134 323.46 237.839 323.354 235.55C346.097 236.605 369.096 228.516 386.359 211.253C419.145 178.467 418.836 124.999 385.669 91.8315C352.501 58.6641 299.033 58.3551 266.247 91.1412C248.984 108.404 240.896 131.403 241.95 154.146C239.661 154.041 237.367 154.024 235.076 154.107C235.867 131.367 227.512 108.28 210.049 90.8164C176.881 57.649 123.413 57.3399 90.627 90.126C57.8409 122.912 58.1499 176.38 91.3173 209.548ZM363.122 238.413L377.011 241.633C381.174 242.598 385.482 242.981 389.761 242.78C389.988 242.769 390.174 242.961 390.158 243.188C389.901 246.76 390.361 250.359 391.536 253.835L395.425 265.337L399.314 253.835C400.459 250.45 400.925 246.949 400.711 243.47C400.696 243.214 400.931 243.014 401.18 243.073C408.486 244.82 417.458 245.097 424.684 243.283L443.632 238.525L424.684 233.767C417.458 231.952 408.483 232.23 401.177 233.977C400.928 234.037 400.692 233.836 400.708 233.58C400.929 230.084 400.464 226.565 399.314 223.164L395.425 211.663L391.536 223.164C390.38 226.584 389.916 230.123 390.146 233.639C390.161 233.865 389.975 234.056 389.749 234.045C385.474 233.845 381.17 234.228 377.011 235.192L363.122 238.413ZM99.3144 241.633L113.203 238.413L99.3144 235.192C95.1549 234.228 90.8506 233.845 86.5763 234.045C86.3496 234.056 86.1642 233.865 86.179 233.639C86.4088 230.123 85.9453 226.584 84.7887 223.164L80.8997 211.663L77.0108 223.164C75.8606 226.565 75.3959 230.084 75.6166 233.58C75.6327 233.836 75.397 234.037 75.1476 233.977C67.8417 232.23 58.8671 231.952 51.6408 233.767L32.6927 238.525L51.6408 243.283C58.8675 245.097 67.8387 244.82 75.1446 243.073C75.3937 243.014 75.6293 243.214 75.6136 243.47C75.4005 246.949 75.8661 250.45 77.0108 253.835L80.8997 265.337L84.7887 253.835C85.9641 250.359 86.4236 246.76 86.1671 243.188C86.1508 242.961 86.3366 242.769 86.5643 242.78C90.8426 242.981 95.1509 242.598 99.3144 241.633ZM238.076 113.54L241.296 99.6516C242.261 95.4881 242.643 91.1798 242.443 86.9015C242.432 86.6738 242.624 86.488 242.851 86.5043C246.423 86.7608 250.022 86.3013 253.498 85.1259L264.999 81.2368L253.498 77.348C250.113 76.2032 246.612 75.7377 243.132 75.9508C242.877 75.9665 242.676 75.7309 242.736 75.4818C244.483 68.1759 244.76 59.2047 242.945 51.978L238.187 33.0298L233.43 51.978C231.615 59.2043 231.893 68.1789 233.64 75.4848C233.699 75.7342 233.499 75.9699 233.243 75.9538C229.747 75.7331 226.228 76.1978 222.827 77.348L211.326 81.2368L222.827 85.1259C226.247 86.2825 229.786 86.746 233.302 86.5162C233.528 86.5014 233.718 86.6868 233.708 86.9135C233.508 91.1878 233.891 95.4921 234.855 99.6516L238.076 113.54ZM242.973 377.348L239.753 363.459L236.532 377.348C235.568 381.507 235.186 385.812 235.385 390.086C235.396 390.313 235.206 390.498 234.979 390.483C231.464 390.253 227.925 390.717 224.504 391.874L213.003 395.763L224.504 399.651C227.905 400.802 231.424 401.266 234.92 401.046C235.176 401.029 235.377 401.265 235.317 401.515C233.57 408.82 233.292 417.795 235.107 425.021L239.865 443.97L244.623 425.021C246.437 417.795 246.16 408.823 244.413 401.518C244.354 401.269 244.554 401.033 244.81 401.049C248.289 401.262 251.79 400.796 255.176 399.651L266.677 395.763L255.176 391.874C251.699 390.698 248.101 390.239 244.529 390.495C244.301 390.511 244.109 390.326 244.12 390.098C244.321 385.82 243.938 381.511 242.973 377.348Z" fill="#DD3300"/>
</svg>
